<svg version="1.1" id="Layer_1" xmlns="http://www.w3.org/2000/svg" xmlns:xlink="http://www.w3.org/1999/xlink" x="0px" y="0px"
	 width="100%" viewBox="0 0 98 98" enable-background="new 0 0 98 98" xml:space="preserve">
<path fill="#FFFFFF" opacity="1.000000" stroke="none" 
	d="
M26.001434,89.000000 
	C21.008251,89.000000 16.514534,89.021866 12.021111,88.994949 
	C5.045769,88.953171 2.605609,84.724152 6.111599,78.670662 
	C11.741580,68.949875 17.422895,59.258766 23.095165,49.562515 
	C29.742498,38.199474 36.309856,26.787325 43.162682,15.549398 
	C44.150970,13.928710 46.577660,12.191570 48.271442,12.256729 
	C50.205894,12.331147 52.823723,13.908227 53.841595,15.611150 
	C66.274727,36.412098 78.561440,57.302979 90.590019,78.339851 
	C91.896408,80.624603 92.145157,84.222313 91.343559,86.715607 
	C90.921013,88.029877 87.172516,88.884720 84.916801,88.904037 
	C65.446037,89.070854 45.973232,89.000000 26.001434,89.000000 
z"/>
<path fill="#FFFFFF" opacity="1.000000" stroke="none" 
	d="
M90.312355,23.188274 
	C87.570137,27.585199 85.220642,31.789717 82.619850,35.832581 
	C79.625114,40.487835 75.245804,40.463543 72.248825,35.700230 
	C69.005821,30.545887 65.887848,25.295813 63.036877,19.917065 
	C60.578568,15.279133 62.784451,11.303281 67.990021,11.068632 
	C74.291046,10.784606 80.623276,10.796827 86.925789,11.063660 
	C92.227547,11.288122 94.229301,15.024692 92.025833,19.860363 
	C91.558388,20.886198 91.071793,21.903301 90.312355,23.188274 
z"/>
</svg>